<svg id="Filled" height="512" viewBox="0 0 512 512" width="512" xmlns="http://www.w3.org/2000/svg"><g fill="#cfd2fc"><path d="m464 280h-304a24 24 0 0 1 0-48h304a24 24 0 0 1 0 48z"/><path d="m336.019 376a24 24 0 0 1 -14.419-43.2l102.4-76.8-102.4-76.8a24 24 0 0 1 28.8-38.4l128 96a24 24 0 0 1 0 38.4l-128 96a23.893 23.893 0 0 1 -14.381 4.8z"/><path d="m224 488h-176a24 24 0 0 1 -24-24v-416a24 24 0 0 1 24-24h176a24 24 0 0 1 24 24v96a24 24 0 0 1 -48 0v-72h-128v368h128v-72a24 24 0 0 1 48 0v96a24 24 0 0 1 -24 24z"/></g><path d="m336.02 384a32.173 32.173 0 0 1 -25.62-12.8 32 32 0 0 1 6.4-44.8l51.2-38.4h-208a32 32 0 0 1 0-64h208l-51.2-38.4a32 32 0 0 1 38.4-51.2l128 96.005a32 32 0 0 1 0 51.2l-128 96a31.736 31.736 0 0 1 -19.18 6.395zm-176.02-144.008a16 16 0 0 0 0 32h232a8 8 0 0 1 4.8 14.4l-70.4 52.8a16 16 0 1 0 19.2 25.6l128-96a16 16 0 0 0 0-25.6l-128-96a16 16 0 0 0 -19.2 25.6l70.4 52.8a8 8 0 0 1 -4.8 14.4z"/><path d="m224 496h-176a32.036 32.036 0 0 1 -32-32v-416a32.036 32.036 0 0 1 32-32h176a32.036 32.036 0 0 1 32 32v96a32 32 0 0 1 -64 0v-64h-112v352h112v-64a32 32 0 0 1 64 0v96a32.036 32.036 0 0 1 -32 32zm-176-464a16.019 16.019 0 0 0 -16 16v416a16.019 16.019 0 0 0 16 16h176a16.019 16.019 0 0 0 16-16v-96a16 16 0 0 0 -32 0v72a8 8 0 0 1 -8 8h-128a8 8 0 0 1 -8-8v-368a8 8 0 0 1 8-8h128a8 8 0 0 1 8 8v72a16 16 0 0 0 32 0v-96a16.019 16.019 0 0 0 -16-16z"/></svg>