<svg id="Capa_1" enable-background="new 0 0 512 512" height="512" viewBox="0 0 512 512" width="512" xmlns="http://www.w3.org/2000/svg"><g><g><g><g><g><path d="m504.5 202.559v-90.849c0-8.855-7.178-16.032-16.032-16.032h-464.936c-8.854 0-16.032 7.178-16.032 16.032v90.849l24.045 21.377h448.907z" fill="#a4ccff"/><path d="m31.548 95.677h-8.016c-8.854 0-16.032 7.178-16.032 16.032v90.849l24.044 21.377h.004z" fill="#8bb3ea"/><path d="m7.5 309.441v90.849c0 8.855 7.178 16.032 16.032 16.032h464.935c8.854 0 16.032-7.178 16.032-16.032v-90.849l-24.045-21.376h-448.906z" fill="#a4ccff"/><path d="m31.548 352.194v-57.004-7.125l-24.048 21.376v90.849c0 8.855 7.179 16.032 16.032 16.032h464.935c8.854 0 16.032-7.178 16.032-16.032v-8.016h-432.87c-22.1 0-40.081-17.98-40.081-40.08z" fill="#8bb3ea"/><path d="m7.5 202.559h497v106.882h-497z" fill="#f2f2f6"/><path d="m7.5 202.559h24.048v106.882h-24.048z" fill="#e1e1e6"/></g></g></g><circle cx="256" cy="256" fill="#ffe07d" r="16.032"/></g><g><path d="m488.468 88.177h-464.936c-12.975 0-23.532 10.557-23.532 23.532v288.581c0 12.976 10.557 23.532 23.532 23.532h464.936c12.976 0 23.532-10.557 23.532-23.532v-288.581c0-12.975-10.557-23.532-23.532-23.532zm0 320.646h-464.936c-4.705 0-8.532-3.828-8.532-8.532v-83.35h16.548c4.142 0 7.5-3.358 7.5-7.5s-3.358-7.5-7.5-7.5h-16.548v-91.882h425.371c4.142 0 7.5-3.358 7.5-7.5s-3.358-7.5-7.5-7.5h-425.371v-83.35c0-4.705 3.828-8.532 8.532-8.532h464.936c4.705 0 8.532 3.828 8.532 8.532v83.35h-24.565c-4.142 0-7.5 3.358-7.5 7.5s3.358 7.5 7.5 7.5h24.565v91.882h-433.39c-4.142 0-7.5 3.358-7.5 7.5s3.358 7.5 7.5 7.5h433.39v83.35c0 4.704-3.828 8.532-8.532 8.532z"/><path d="m221.736 275.782c1.389 2.406 3.91 3.751 6.502 3.751 1.272 0 2.562-.324 3.743-1.006l8.467-4.888c2.323 2.051 5.053 3.649 8.052 4.66v9.765c0 4.142 3.358 7.5 7.5 7.5s7.5-3.358 7.5-7.5v-9.764c2.999-1.011 5.728-2.609 8.052-4.66l8.467 4.888c1.181.682 2.471 1.006 3.743 1.006 2.592 0 5.113-1.346 6.502-3.751 2.071-3.587.842-8.174-2.745-10.245l-8.451-4.879c.304-1.506.465-3.063.465-4.658s-.161-3.152-.465-4.658l8.451-4.879c3.587-2.071 4.816-6.658 2.745-10.245s-6.659-4.817-10.245-2.745l-8.467 4.888c-2.323-2.051-5.053-3.649-8.052-4.66v-9.765c0-4.142-3.358-7.5-7.5-7.5s-7.5 3.358-7.5 7.5v9.765c-2.999 1.011-5.728 2.609-8.052 4.66l-8.467-4.888c-3.587-2.072-8.174-.842-10.245 2.745s-.842 8.174 2.745 10.245l8.451 4.879c-.304 1.506-.465 3.063-.465 4.658s.161 3.152.465 4.658l-8.451 4.879c-3.587 2.07-4.816 6.657-2.745 10.244zm42.796-19.782c0 4.705-3.828 8.532-8.532 8.532s-8.532-3.828-8.532-8.532 3.828-8.532 8.532-8.532 8.532 3.827 8.532 8.532z"/></g></g></svg>