<svg id="Capa_1" enable-background="new 0 0 512 512" height="512" viewBox="0 0 512 512" width="512" xmlns="http://www.w3.org/2000/svg"><g><g><path d="m488.468 239.968h-464.936c-8.854 0-16.032 7.178-16.032 16.032v144.29c0 8.854 7.178 16.032 16.032 16.032h464.935c8.854 0 16.032-7.178 16.032-16.032v-144.29c.001-8.854-7.177-16.032-16.031-16.032z" fill="#e5646e"/><path d="m31.548 352.194v-112.226h-8.016c-8.853 0-16.032 7.177-16.032 16.032v144.29c0 8.854 7.179 16.032 16.032 16.032h464.935c8.854 0 16.032-7.178 16.032-16.032v-8.016h-432.87c-22.1 0-40.081-17.98-40.081-40.08z" fill="#db4655"/><path d="m488.468 95.677h-464.936c-8.854 0-16.032 7.178-16.032 16.032v144.291h497v-144.29c0-8.855-7.178-16.033-16.032-16.033z" fill="#f2f2f6"/><path d="m23.532 95.677c-8.854 0-16.032 7.178-16.032 16.032v144.291h160.322c.001-48.801 0-160.323 0-160.323z" fill="#5055a0"/><path d="m124.34 164.531-22.423-.197-11.01-24.093c-1.04-3.119-5.452-3.119-6.493 0l-8.035 24.093-25.397.197c-3.288.026-4.651 4.222-2.006 6.175l20.431 15.087-7.661 24.215c-.992 3.135 2.578 5.728 5.253 3.817l20.662-14.769 20.662 14.769c2.675 1.912 6.245-.681 5.253-3.817l-7.661-24.215 20.431-15.087c2.645-1.954 1.282-6.15-2.006-6.175z" fill="#fff"/><path d="m23.532 95.677c-8.854 0-16.032 7.178-16.032 16.032v144.291h24.048v-160.323z" fill="#3f3f8f"/></g><g><path d="m488.468 88.177h-464.936c-12.975 0-23.532 10.557-23.532 23.532v288.581c0 12.976 10.557 23.532 23.532 23.532h464.936c12.976 0 23.532-10.557 23.532-23.532v-288.581c0-12.975-10.557-23.532-23.532-23.532zm-464.936 15h136.79l-.001 144.859c0 .304-.26.463-.516.463h-144.805v-136.79c0-4.704 3.828-8.532 8.532-8.532zm464.936 305.646h-464.936c-4.705 0-8.532-3.828-8.532-8.532v-136.791h144.805c8.556 0 15.516-6.937 15.516-15.463l.001-144.86h313.145c4.705 0 8.532 3.828 8.532 8.532v136.791h-297.112c-4.142 0-7.5 3.358-7.5 7.5s3.358 7.5 7.5 7.5h297.113v136.791c0 4.704-3.828 8.532-8.532 8.532z"/><path d="m44.521 176.739 16.119 11.903-6.043 19.103c-1.42 4.488.184 9.363 3.992 12.131s8.941 2.788 12.772.05l16.301-11.652 16.302 11.652c1.903 1.36 4.126 2.039 6.35 2.039 2.252 0 4.505-.697 6.421-2.09 3.808-2.767 5.413-7.642 3.993-12.13l-6.044-19.104 16.119-11.903c3.787-2.797 5.354-7.684 3.899-12.161-1.455-4.478-5.596-7.51-10.303-7.547l-17.643-.155-8.906-19.489c-1.62-4.199-5.651-6.986-10.188-6.986-4.708 0-8.872 3-10.361 7.467l-6.339 19.008-20.036.155c-4.707.037-8.848 3.069-10.303 7.546-1.456 4.478.11 9.365 3.898 12.163zm31.917-4.906c3.207-.025 6.042-2.085 7.057-5.127l4.751-14.246 6.851 14.99c1.21 2.648 3.844 4.357 6.755 4.382l10.221.09-10.612 7.836c-2.579 1.905-3.662 5.238-2.695 8.295l3.973 12.558-10.715-7.659c-1.304-.932-2.833-1.398-4.361-1.398s-3.057.466-4.361 1.398l-10.714 7.659 3.973-12.557c.967-3.057-.116-6.391-2.696-8.295l-10.595-7.824z"/></g></g></svg>