<svg id="Capa_1" enable-background="new 0 0 512 512" height="512" viewBox="0 0 512 512" width="512" xmlns="http://www.w3.org/2000/svg"><g><g><g><g><path d="m173.167 95.677h-149.635c-8.854 0-16.032 7.178-16.032 16.032v288.581c0 8.854 7.178 16.032 16.032 16.032h149.635l18.704-24.052v-272.541z" fill="#95cc81"/><path d="m185.635 392.274h-114.006c-22.1 0-40.081-17.98-40.081-40.081v-256.516h-8.016c-8.854 0-16.032 7.178-16.032 16.032v288.581c0 8.854 7.179 16.032 16.032 16.032h149.635l18.702-24.048z" fill="#7dbd80"/><path d="m338.833 416.322h149.635c8.854 0 16.032-7.178 16.032-16.032v-288.58c0-8.854-7.178-16.032-16.032-16.032h-149.635l-18.704 24.052v272.542z" fill="#e5646e"/><path d="m504.5 400.29v-8.016h-184.369l18.702 24.048h149.635c8.854 0 16.032-7.177 16.032-16.032z" fill="#db4655"/><path d="m173.167 95.677h165.666v320.645h-165.666z" fill="#f2f2f6"/><path d="m173.167 392.274h165.666v24.048h-165.666z" fill="#e1e1e6"/></g></g><path d="m231.952 215.919h16.032c13.282 0 24.048 10.767 24.048 24.048v32.065h-11.207c-11.968 0-22.114-8.8-23.807-20.647z" fill="#966a5b"/></g><g><path d="m488.468 88.177h-464.936c-12.975 0-23.532 10.557-23.532 23.533v288.58c0 12.976 10.557 23.532 23.532 23.532h464.936c12.976 0 23.532-10.557 23.532-23.532v-288.58c0-12.976-10.557-23.533-23.532-23.533zm8.532 312.113c0 4.705-3.828 8.532-8.532 8.532h-142.135v-249.016c0-4.142-3.358-7.5-7.5-7.5s-7.5 3.358-7.5 7.5v249.017h-150.666v-24.565c0-4.142-3.358-7.5-7.5-7.5s-7.5 3.358-7.5 7.5v24.565h-142.135c-4.705 0-8.532-3.828-8.532-8.532v-288.581c0-4.705 3.828-8.532 8.532-8.532h142.134v249.017c0 4.142 3.358 7.5 7.5 7.5s7.5-3.358 7.5-7.5v-249.018h150.667v24.565c0 4.142 3.358 7.5 7.5 7.5s7.5-3.358 7.5-7.5v-24.565h142.134c4.705 0 8.532 3.827 8.532 8.532v288.581z"/><path d="m304.097 248.5c-4.142 0-7.5 3.358-7.5 7.5 0 22.385-18.211 40.597-40.597 40.597s-40.597-18.212-40.597-40.597c0-4.142-3.358-7.5-7.5-7.5s-7.5 3.358-7.5 7.5c0 30.656 24.94 55.597 55.597 55.597s55.597-24.941 55.597-55.597c0-4.142-3.358-7.5-7.5-7.5z"/><path d="m229.593 252.445c2.206 15.442 15.633 27.087 31.231 27.087h11.208c4.142 0 7.5-3.358 7.5-7.5v-32.064c0-17.396-14.152-31.548-31.548-31.548h-16.032c-2.174 0-4.241.944-5.666 2.586-1.424 1.643-2.066 3.822-1.759 5.975zm18.391-29.026c9.125 0 16.548 7.424 16.548 16.548v24.564h-3.708c-8.182 0-15.225-6.108-16.382-14.208l-3.844-26.905h7.386z"/></g></g></svg>