<svg id="Layer_5" enable-background="new 0 0 64 64" height="512" viewBox="0 0 64 64" width="512" xmlns="http://www.w3.org/2000/svg"><g><path d="m21 26c0-1.654-1.346-3-3-3s-3 1.346-3 3 1.346 3 3 3 3-1.346 3-3zm-3 1c-.551 0-1-.449-1-1s.449-1 1-1 1 .449 1 1-.449 1-1 1z"/><path d="m40 23c-1.654 0-3 1.346-3 3s1.346 3 3 3 3-1.346 3-3-1.346-3-3-3zm0 4c-.551 0-1-.449-1-1s.449-1 1-1 1 .449 1 1-.449 1-1 1z"/><path d="m40 13c-7.168 0-13 5.832-13 13s5.832 13 13 13 13-5.832 13-13-5.832-13-13-13zm10.586 14c-1.43 1.43-3.126 2.488-4.97 3.161.865-1.165 1.384-2.602 1.384-4.161s-.519-2.996-1.384-4.161c1.844.673 3.541 1.732 4.97 3.161.263.263.414.628.414 1s-.151.737-.414 1zm-21.586-1c0-.372.151-.737.414-1 1.43-1.43 3.126-2.488 4.97-3.161-.865 1.165-1.384 2.602-1.384 4.161s.519 2.996 1.384 4.161c-1.844-.673-3.541-1.732-4.97-3.161-.263-.263-.414-.628-.414-1zm6 0c0-2.757 2.243-5 5-5s5 2.243 5 5-2.243 5-5 5-5-2.243-5-5zm5-11c4.698 0 8.706 2.966 10.279 7.118-2.688-2.013-5.931-3.118-9.35-3.118h-1.857c-3.419 0-6.662 1.105-9.351 3.118 1.573-4.152 5.581-7.118 10.279-7.118zm0 22c-4.698 0-8.706-2.966-10.279-7.118 2.688 2.013 5.931 3.118 9.35 3.118h1.857c3.419 0 6.662-1.105 9.351-3.118-1.573 4.152-5.581 7.118-10.279 7.118z"/><path d="m61.671 41.258-6.89-6.891c1.405-2.474 2.219-5.325 2.219-8.367 0-8.202-5.838-15.065-13.577-16.654-1.577-4.943-6.179-8.346-11.423-8.346-1.771 0-3.36.776-4.46 2h-9.325c-7.838 0-14.215 6.377-14.215 14.215 0 2.069.482 4.119 1.354 5.994-.845 1.034-1.354 2.354-1.354 3.791 0 3.309 2.691 6 6 6h.16c.702 4.873 3.909 8.943 8.281 10.843l-.319 2.233-7.901.718c-1.677.152-3.305.727-4.706 1.661-2.827 1.885-4.515 5.038-4.515 8.436v6.109h46v-6.109c0-3.397-1.688-6.551-4.515-8.436-1.401-.935-3.029-1.509-4.706-1.661l-7.901-.718-.32-2.241c1.3-.565 2.512-1.333 3.604-2.283 2.095.925 4.405 1.448 6.838 1.448 3.042 0 5.894-.814 8.367-2.219l6.89 6.891c.857.856 1.995 1.328 3.207 1.328 2.501 0 4.536-2.034 4.536-4.535 0-1.211-.472-2.351-1.329-3.207zm-29.671-38.258c4.047 0 7.636 2.431 9.189 6.06-.395-.027-.788-.06-1.189-.06-.825 0-1.631.079-2.425.193.273-.693.425-1.435.425-2.193v-1h-2v1c0 1.056-.433 2.065-1.174 2.811-.977.313-1.916.712-2.808 1.188-.006 0-.012 0-.018 0-2.206 0-4-1.794-4-4s1.794-3.999 4-3.999zm-13.785 2h8.135c-.222.627-.35 1.298-.35 2 0 2.483 1.516 4.618 3.67 5.529-1.372 1.054-2.581 2.306-3.577 3.723-.515-.328-1.014-.669-1.469-1.033l-.624-.5-.625.5c-3.047 2.438-6.875 3.781-10.778 3.781h-2.597v2c-1.122 0-2.169.315-3.069.854-.602-1.47-.931-3.049-.931-4.639 0-6.735 5.48-12.215 12.215-12.215zm-12.215 22c0-2.206 1.794-4 4-4v8c-2.206 0-4-1.794-4-4zm31.599 21.786c1.346.122 2.652.583 3.777 1.333 2.269 1.513 3.624 4.045 3.624 6.772v4.109h-6v-6h-2v6h-26v-6h-2v6h-6v-4.109c0-2.727 1.355-5.259 3.624-6.771 1.125-.75 2.431-1.211 3.777-1.333l8.166-.743 5.433 6.519 5.433-6.519zm-9.652-2.085-3.947 4.737-3.947-4.737.314-2.196c1.161.313 2.375.495 3.633.495 1.242 0 2.46-.175 3.634-.491zm-3.947-3.701c-6.617 0-12-5.383-12-12v-10h.597c4.093 0 8.112-1.324 11.404-3.741.33.241.675.472 1.029.697-1.293 2.396-2.03 5.135-2.03 8.044 0 2.497.555 4.862 1.526 7h-5.526v2c0 2.757 2.243 5 5 5 1.589 0 3.051-.762 3.977-1.993.976.977 2.08 1.82 3.268 2.538-2.081 1.587-4.605 2.455-7.245 2.455zm2.611-6.561c-.52.949-1.514 1.561-2.611 1.561-1.654 0-3-1.346-3-3h4.604c.312.497.647.978 1.007 1.439zm-1.611-10.439c0-8.271 6.729-15 15-15s15 6.729 15 15-6.729 15-15 15-15-6.729-15-15zm33.464 21c-.678 0-1.314-.264-1.793-.742l-6.596-6.597c1.367-1.011 2.575-2.219 3.586-3.586l6.596 6.597c.479.479.743 1.116.743 1.793 0 1.397-1.138 2.535-2.536 2.535z"/></g></svg>