<svg height="512" viewBox="0 0 60 60" width="512" xmlns="http://www.w3.org/2000/svg"><g id="Page-1" fill="none" fill-rule="evenodd"><g id="036---Browser-Survey" fill="rgb(0,0,0)" fill-rule="nonzero"><path id="Shape" d="m55 0h-50c-2.76007596.00325114-4.99674886 2.23992404-5 5v50c.00325114 2.760076 2.23992404 4.9967489 5 5h50c2.760076-.0032511 4.9967489-2.239924 5-5v-50c-.0032511-2.76007596-2.239924-4.99674886-5-5zm-50 2h50c1.6561003.00181871 2.9981813 1.34389967 3 3v7h-56v-7c.00181871-1.65610033 1.34389967-2.99818129 3-3zm50 56h-50c-1.65610033-.0018187-2.99818129-1.3438997-3-3v-41h56v41c-.0018187 1.6561003-1.3438997 2.9981813-3 3z"/><path id="Shape" d="m7 10c1.65685425 0 3-1.34314575 3-3s-1.34314575-3-3-3-3 1.34314575-3 3c.00181871 1.65610033 1.34389967 2.99818129 3 3zm0-4c.55228475 0 1 .44771525 1 1s-.44771525 1-1 1-1-.44771525-1-1c.0004962-.55207909.44792091-.9995038 1-1z"/><path id="Shape" d="m15 10c1.6568542 0 3-1.34314575 3-3s-1.3431458-3-3-3-3 1.34314575-3 3c.0018187 1.65610033 1.3438997 2.99818129 3 3zm0-4c.5522847 0 1 .44771525 1 1s-.4477153 1-1 1-1-.44771525-1-1c.0004962-.55207909.4479209-.9995038 1-1z"/><path id="Shape" d="m23 10c1.6568542 0 3-1.34314575 3-3s-1.3431458-3-3-3-3 1.34314575-3 3c.0018187 1.65610033 1.3438997 2.99818129 3 3zm0-4c.5522847 0 1 .44771525 1 1s-.4477153 1-1 1-1-.44771525-1-1c.0004962-.55207909.4479209-.9995038 1-1z"/><path id="Shape" d="m18 17c-4.9705627 0-9 4.0294373-9 9s4.0294373 9 9 9 9-4.0294373 9-9c-.0055111-4.9682782-4.0317218-8.9944889-9-9zm0 16c-3.8659932 0-7-3.1340068-7-7s3.1340068-7 7-7 7 3.1340068 7 7c-.0044636 3.8641428-3.1358572 6.9955364-7 7z"/><path id="Shape" d="m18 37c-4.9705627 0-9 4.0294373-9 9s4.0294373 9 9 9 9-4.0294373 9-9c-.0055111-4.9682782-4.0317218-8.9944889-9-9zm0 16c-3.8659932 0-7-3.1340068-7-7s3.1340068-7 7-7 7 3.1340068 7 7c-.0044636 3.8641428-3.1358572 6.9955364-7 7z"/><circle id="Oval" cx="14" cy="25" r="1"/><circle id="Oval" cx="22" cy="25" r="1"/><path id="Shape" d="m20.2334 26.8579c-.5085262-.2145743-1.0948323.0223622-1.3115.53-.0506785.1195556-.1239514.2282085-.2158.32-.0907724.0908524-.1982414.1633133-.3165.2134-.2492216.1045037-.5299784.1045037-.7792 0-.239943-.1021204-.4308102-.2934896-.5323-.5337-.2157224-.508599-.802901-.7460224-1.3115-.5303s-.7460224.802901-.5303 1.3115c.1508069.3553221.3686413.6782713.6416.9512.5621339.5636001 1.3253778.880434 2.1213926.8806216s1.5594079-.3162865 2.1218074-.8796216c.2733887-.2731654.4915676-.5964614.6426-.9522.2155085-.5084337-.0219011-1.0953094-.5303-1.3109z"/><circle id="Oval" cx="14" cy="45" r="1"/><circle id="Oval" cx="22" cy="45" r="1"/><path id="Shape" d="m20.1221 47.88c-.2732895-.2749634-.5977557-.4937768-.9551-.6441-.7466206-.3124945-1.5873794-.3124945-2.334 0-.356927.1500989-.681046.3685676-.9541.6431-.2733887.2731654-.4915676.5964614-.6426.9522-.2157224.508599.021701 1.0957776.5303 1.3115s1.0957776-.021701 1.3115-.5303c.0506785-.1195556.1239514-.2282085.2158-.32.0907724-.0908524.1982414-.1633133.3165-.2134.2492216-.1045037.5299784-.1045037.7792 0 .239943.1021204.4308102.2934896.5323.5337.2157224.508599.802901.7460224 1.3115.5303s.7460224-.802901.5303-1.3115c-.1507732-.355429-.3686095-.6784826-.6416-.9515z"/><path id="Shape" d="m48 26c-.5522847 0-1 .4477153-1 1v4c-.0004962.5520791-.4479209.9995038-1 1h-10c-.5520791-.0004962-.9995038-.4479209-1-1v-10c.0004962-.5520791.4479209-.9995038 1-1h10c.5522847 0 1-.4477153 1-1s-.4477153-1-1-1h-10c-1.6561003.0018187-2.9981813 1.3438997-3 3v10c.0018187 1.6561003 1.3438997 2.9981813 3 3h10c1.6561003-.0018187 2.9981813-1.3438997 3-3v-4c0-.5522847-.4477153-1-1-1z"/><path id="Shape" d="m46 38h-10c-1.6561003.0018187-2.9981813 1.3438997-3 3v10c.0018187 1.6561003 1.3438997 2.9981813 3 3h10c1.6561003-.0018187 2.9981813-1.3438997 3-3v-10c-.0018187-1.6561003-1.3438997-2.9981813-3-3zm1 13c-.0004962.5520791-.4479209.9995038-1 1h-10c-.5520791-.0004962-.9995038-.4479209-1-1v-10c.0004962-.5520791.4479209-.9995038 1-1h10c.5520791.0004962.9995038.4479209 1 1z"/><path id="Shape" d="m50.293 18.293-9.293 9.2929-2.293-2.2929c-.3923789-.3789722-1.0160848-.3735524-1.4018186.0121814s-.3911536 1.0094397-.0121814 1.4018186l3 3c.1874626.1875936.4417952.2929936.707.2929936s.5195374-.1054.707-.2929936l10-10c.3789722-.3923789.3735524-1.0160848-.0121814-1.4018186s-1.0094397-.3911536-1.4018186-.0121814z"/></g></g></svg>