<svg id="Capa_1" enable-background="new 0 0 511.924 511.924" height="512" viewBox="0 0 511.924 511.924" width="512" xmlns="http://www.w3.org/2000/svg"><g><g><path d="m145.03 433.783c-.025-.025-.051-.05-.076-.075l-21.511-20.903c-2.971-2.888-7.719-2.818-10.605.152s-2.818 7.719.152 10.605l21.476 20.869c5.073 5.05 11.727 7.575 18.38 7.575 6.671 0 13.343-2.539 18.421-7.616 4.907-4.906 7.61-11.447 7.61-18.418 0-6.972-2.703-13.513-7.61-18.419l-65.877-65.86c-10.157-10.155-26.685-10.155-36.842 0-4.908 4.906-7.61 11.447-7.61 18.418s2.702 13.512 7.61 18.419l19.936 19.93c2.93 2.93 7.679 2.927 10.606-.001 2.929-2.93 2.928-7.679-.001-10.606l-19.936-19.93c-2.074-2.073-3.216-4.848-3.216-7.812 0-2.963 1.142-5.737 3.216-7.811 4.311-4.309 11.322-4.309 15.631 0l65.877 65.86c2.073 2.073 3.216 4.848 3.216 7.812 0 2.963-1.143 5.737-3.216 7.811-4.309 4.309-11.323 4.309-15.631 0z"/><path d="m497.905 99.132 9.358-9.356c2.36-2.358 3.659-5.498 3.659-8.841s-1.299-6.482-3.659-8.841l-33.168-33.162-33.155-33.117c-2.337-2.371-5.465-3.684-8.809-3.695-.016 0-.031 0-.047 0-3.34 0-6.477 1.297-8.835 3.656l-7.261 7.259-10.865-10.843c-2.932-2.926-7.681-2.922-10.606.011s-2.921 7.681.011 10.606l10.854 10.831-19.692 19.687-9.807-9.803c-2.932-2.932-7.681-2.929-10.606.001-2.929 2.93-2.928 7.679.001 10.606l9.804 9.801-.208.208c-4.77 4.767-5.38 5.648-8.172 11.795-.312.687-.519 1.416-.613 2.164l-3.517 27.919-88.089 88.068c-22.19-11.126-46.77-14.747-69.828-10.155-4.062.808-6.7 4.756-5.892 8.819.808 4.062 4.758 6.699 8.819 5.892 18.232-3.624 37.662-1.241 55.641 6.701l-69.199 69.183c-15.169-.55-30.518 4.939-42.072 16.49-10.684 10.682-16.568 24.88-16.568 39.98s5.885 29.299 16.568 39.98c11.03 11.027 25.515 16.541 40.003 16.539 14.485-.001 28.975-5.514 40.002-16.539 10.685-10.681 16.569-24.88 16.569-39.98 0-.704-.026-1.404-.051-2.104l8.453-8.451 60.72-60.705c15.079 33.989 9.761 71.371-14.381 95.507-8.011 8.01-15.562 13.179-23.101 15.809-19.229 6.744-20.715 21.604-20.599 35.023.283 25.32-10.563 50.265-30.54 70.237-44.606 44.596-121.811 39.97-172.102-10.309-50.284-50.272-54.909-127.47-10.315-172.08 19.751-19.719 44.358-30.542 69.382-30.542.294 0 .588.001.882.005 13.391.128 28.272-1.316 34.995-20.588 2.645-7.51 7.827-15.058 15.845-23.072 3.041-3.042 6.397-5.87 9.975-8.406 3.379-2.396 4.176-7.076 1.78-10.456-2.395-3.378-7.073-4.176-10.456-1.78-4.263 3.022-8.269 6.398-11.905 10.035-9.64 9.637-15.98 19.024-19.394 28.719-3.203 9.181-7.958 10.698-20.683 10.549-29.355-.267-58.163 12.104-81.024 34.927-50.446 50.466-45.819 137.179 10.313 193.298 30.036 30.029 68.817 45.315 106.123 45.312 32.421-.002 63.729-11.551 87.189-35.004 22.855-22.851 35.263-51.621 34.935-80.994-.11-12.728 1.4-17.506 10.552-20.716 9.705-3.385 19.11-9.718 28.753-19.359 15.442-15.438 24.676-35.522 26.703-58.083 1.805-20.092-2.237-40.467-11.678-59.279l5.592-5.591c.002-.002.004-.004.006-.006s.004-.004.006-.006l82.469-82.449 27.954-3.516c.76-.096 1.499-.307 2.194-.626 5.239-2.406 6.677-3.22 9.858-6.276l9.835 9.833c1.465 1.465 3.384 2.196 5.303 2.196 1.92 0 3.84-.732 5.304-2.197 2.929-2.93 2.928-7.678-.001-10.606l-9.818-9.815 19.696-19.691 8.704 8.702c1.465 1.464 3.384 2.196 5.303 2.196 1.92 0 3.84-.732 5.304-2.197 2.929-2.93 2.929-7.678-.001-10.606zm-276.553 251.237c-16.209 16.206-42.585 16.205-58.794 0-7.851-7.849-12.174-18.28-12.174-29.373s4.323-21.524 12.174-29.373c8.105-8.104 18.75-12.154 29.397-12.154 10.645 0 21.293 4.053 29.396 12.154 7.851 7.849 12.175 18.28 12.175 29.373s-4.323 21.525-12.174 29.373zm23.609-49.174c-2.796-7.488-7.181-14.359-13.004-20.18-5.856-5.855-12.693-10.137-19.981-12.883-.08-.032-.157-.073-.238-.103l31.495-31.476 33.193 33.185zm69.423-69.405s-.002.001-.002.002l-27.349 27.342-33.191-33.182 27.351-27.334c.083-.083.153-.174.232-.26l3.961-3.96 33.2 33.192zm14.81-14.806-33.2-33.192 31.553-31.546 33.2 33.192zm42.16-42.151-33.2-33.192 31.537-31.529 33.189 33.202zm76.928-47.302c-2.899 2.9-3.16 3.16-6.376 4.65l-25.71 3.234-38.603-38.619 3.236-25.69c1.447-3.157 1.712-3.423 4.649-6.358l46.597-46.587 62.814 62.773z"/><path d="m427.233 110.279c1.464 1.463 3.382 2.194 5.301 2.194 1.92 0 3.841-.733 5.306-2.199l27.64-27.661c2.928-2.93 2.926-7.679-.005-10.606-2.929-2.928-7.678-2.927-10.606.005l-27.64 27.661c-2.929 2.93-2.927 7.679.004 10.606z"/><path d="m402.745 75.184c-2.931 2.927-2.934 7.676-.007 10.606 1.465 1.467 3.386 2.2 5.307 2.2 1.918 0 3.836-.731 5.3-2.193l27.668-27.633c2.931-2.927 2.934-7.676.007-10.606-2.927-2.932-7.676-2.933-10.606-.007z"/></g></g></svg>